# xmcd
#
# Track frame offsets:
#	150
#	11606
#	24485
#	32797
#	41673
#	51952
#	61887
#	70776
#	82573
#	90674
#	102739
#	111506
#	121496
#	133375
#	144798
#	155968
#
# Disc length: 2202 seconds
#
# Revision: 0
# Processed by: cddbd v1.5.2PL0 Copyright (c) Steve Scherf et al.
# Submitted via: FairStars CD Ripper 1.51
#
DISCID=de089810
DTITLE=Elvis Presley - Premium Tin Case CD2
DYEAR=2009
DGENRE=Rock and Roll
TTITLE0=One Night
TTITLE1=Don't
TTITLE2=I Got Stung
TTITLE3=Hard Headed Women
TTITLE4=Wear My Ring Around Your Neck
TTITLE5=King Creole
TTITLE6=Doncha Think It's Time
TTITLE7=Shake, Rattle And Roll
TTITLE8=(Let Me Be Your) Teddy Bear
TTITLE9=Blueberry Hill
TTITLE10=Ready Teddy
TTITLE11=My Baby Left Me
TTITLE12=I'm Left, You're Right, She's Gone
TTITLE13=Have I Told You Lately That I Love You
TTITLE14=I Don't Care If The Sun Don't Shine
TTITLE15=Blue Moon Of Kentucky
EXTD=
EXTT0=
EXTT1=
EXTT2=
EXTT3=
EXTT4=
EXTT5=
EXTT6=
EXTT7=
EXTT8=
EXTT9=
EXTT10=
EXTT11=
EXTT12=
EXTT13=
EXTT14=
EXTT15=
PLAYORDER=
